<svg xmlns="http://www.w3.org/2000/svg" style="display: none;">
  
    <symbol id="icon-instagram" viewBox="0 0 512 512">
      <path d="m426 407l0-185-39 0c4 12 6 25 6 38 0 24-6 46-18 66-13 20-29 36-50 48-21 12-44 18-69 18-37 0-69-13-96-39-27-26-40-57-40-93 0-13 2-26 6-38l-41 0 0 185c0 5 2 10 5 13 4 3 8 5 13 5l305 0c5 0 9-2 13-5 3-3 5-8 5-13z m-81-152c0-23-9-44-26-60-18-17-38-25-63-25-24 0-45 8-62 25-17 16-26 37-26 60 0 24 9 44 26 61 17 16 38 25 62 25 25 0 45-9 63-25 17-17 26-37 26-61z m81-103l0-47c0-5-2-10-6-14-4-4-8-6-14-6l-50 0c-5 0-10 2-14 6-4 4-5 9-5 14l0 47c0 6 1 10 5 14 4 4 9 6 14 6l50 0c6 0 10-2 14-6 4-4 6-8 6-14z m49-59l0 326c0 16-5 29-16 40-11 11-24 16-40 16l-326 0c-16 0-29-5-40-16-11-11-16-24-16-40l0-326c0-16 5-29 16-40 11-11 24-16 40-16l326 0c16 0 29 5 40 16 11 11 16 24 16 40z"/>
    </symbol>
  
    <symbol id="icon-twitter-1" viewBox="0 0 512 512">
      <path d="m482 125c-10 17-24 32-43 46l0 8c1 73-35 168-121 222c-42 26-90 40-143 40c-43 0-84-10-122-29c-10-6-17-10-21-12c-2-2-4-5-4-7c0-4 4-8 8-8c2 0 6 1 11 1c5 0 8 1 11 1c33 0 63-9 91-26c-33-8-60-32-71-65c0-1 0-2 0-2c0-4 3-8 7-8c1 0 2 0 3 1c2 0 3 0 3 0c-29-18-47-49-47-83c0-5 4-8 9-8c2 0 5 1 9 2c4 2 6 4 7 4c-15-18-22-39-22-62c0-16 5-36 13-49c2-2 4-4 6-4c3 0 5 1 7 3c12 14 21 23 27 28c39 36 90 57 144 62c-1-3-1-7-1-12c0-53 44-97 98-97c26 0 49 9 68 28c15-4 32-10 51-20c1-1 2-1 4-1c4 0 7 3 7 7c0 8-11 27-19 36c2-1 11-4 18-6c3-2 5-2 6-2c4 0 8 4 8 8c0 1-1 3-2 4z"/>
    </symbol>
  
    <symbol id="icon-tumblr" viewBox="0 0 512 512">
      <path d="m399 465c-16 9-34 16-54 20c-16 4-34 7-52 7c-20 0-39-3-56-9c-19-6-33-14-42-23c-13-11-21-22-24-33c-5-10-7-27-7-49c0 0 0-165 0-165c0 0-51 0-51 0c0 0 0-67 0-67c18-6 34-14 47-25c13-11 23-25 31-41c9-18 14-38 16-60c0 0 66 0 66 0c0 0 0 119 0 119c0 0 111 0 111 0c0 0 0 74 0 74c0 0-111 0-111 0c0 0 0 121 0 121c0 28 2 46 5 52c3 8 8 14 16 18c9 7 21 11 35 11c23 0 46-8 70-24c0 0 0 74 0 74"/>
    </symbol>
  
    <symbol id="icon-linkedin-square" viewBox="0 0 512 512">
      <path d="m104 404l66 0 0-198-66 0z m71-259c-1-10-4-19-11-25-6-6-15-10-26-10-11 0-20 4-27 10-7 6-11 15-11 25 0 9 4 17 10 24 7 7 16 10 27 10l0 0c11 0 20-3 27-10 7-7 11-15 11-24z m167 259l66 0 0-114c0-29-7-51-21-66-14-15-32-23-55-23-26 0-46 11-60 34l1 0 0-29-66 0c0 12 0 78 0 198l66 0 0-111c0-7 0-12 2-16 2-7 7-12 12-17 6-5 13-7 22-7 22 0 33 15 33 45z m133-285l0 274c0 23-8 42-24 58-16 16-35 24-58 24l-274 0c-23 0-42-8-58-24-16-16-24-35-24-58l0-274c0-23 8-42 24-58 16-16 35-24 58-24l274 0c23 0 42 8 58 24 16 16 24 35 24 58z"/>
    </symbol>
  
    <symbol id="icon-facebook-official" viewBox="0 0 512 512">
      <path d="m451 37c7 0 13 2 17 7 5 4 7 10 7 17l0 390c0 7-2 13-7 17-4 5-10 7-17 7l-112 0 0-170 57 0 9-66-66 0 0-42c0-11 3-19 7-24 5-5 13-8 26-8l35 0 0-60c-12-1-29-2-51-2-26 0-46 7-62 23-15 15-23 36-23 64l0 49-57 0 0 66 57 0 0 170-210 0c-7 0-13-2-17-7-5-4-7-10-7-17l0-390c0-7 2-13 7-17 4-5 10-7 17-7z"/>
    </symbol>
  
    <symbol id="icon-github" viewBox="0 0 512 512">
      <path d="m475 256c0 48-14 91-41 129-28 38-64 65-109 79-5 1-8 1-11-2-2-2-3-5-3-8l0-61c0-18-5-32-15-40 11-1 20-3 29-5 9-3 18-6 27-11 9-6 17-12 23-19 6-8 11-18 15-30 4-13 6-27 6-43 0-23-8-43-23-59 7-18 7-37-2-59-5-1-13 0-23 4-10 3-19 8-26 12l-11 7c-18-5-36-7-55-7-19 0-37 2-55 7-3-2-7-5-12-8-5-3-13-6-24-11-11-4-19-5-24-4-9 22-9 41-2 59-15 16-23 36-23 59 0 16 2 30 6 42 4 13 9 23 15 30 6 8 14 14 23 20 9 5 18 8 27 11 8 2 18 4 29 5-8 7-12 17-14 29-4 2-8 4-13 5-4 1-10 1-16 1-6 0-13-2-19-6-6-4-11-10-16-18-3-6-8-11-14-15-5-4-10-6-14-7l-5-1c-4 0-7 1-9 2-1 1-2 2-1 3 0 1 1 3 2 4 2 1 3 2 4 3l2 2c4 2 8 5 13 11 4 5 7 10 9 14l2 7c3 7 7 13 13 17 6 5 12 8 19 9 7 1 14 2 20 2 6 0 12 0 16-1l6-1c0 7 0 16 1 25 0 10 0 15 0 16 0 3-2 6-4 8-2 3-6 3-11 2-45-14-81-41-109-79-27-38-41-81-41-129 0-40 9-77 29-110 20-34 46-60 80-80 33-20 70-29 110-29 40 0 77 9 110 29 34 20 60 46 80 80 20 33 29 70 29 110z"/>
    </symbol>
  
</svg>
